<svg width="150" height="50" viewBox="0 0 150 50" fill="none" xmlns="http://www.w3.org/2000/svg">
<path d="M0 0V48.7702H9.03355L17.2444 26.8028L25.3894 48.7702H27.3146L17.5077 22.8314H17.0963L7.78301 47.1418H1.57964V1.47889H50.0877V47.2415H37.9278C37.9771 47.2415 38.0758 47.175 38.1252 47.1584C38.3062 47.0753 38.4872 46.9756 38.6682 46.8759C39.2935 46.5103 39.8694 46.0783 40.3959 45.5798C41.1693 44.8653 41.8439 44.0178 42.3869 43.1039C43.1109 41.8909 43.5881 40.5449 43.8843 39.1657C44.345 37.0222 44.345 34.8952 43.8514 32.7683C43.802 32.5689 43.7527 32.3861 43.7033 32.1867C43.4565 31.2561 43.1274 30.3588 42.6831 29.5114C42.3047 28.7636 41.8439 28.0657 41.3174 27.4343C40.8402 26.8527 40.3137 26.3376 39.7378 25.8723C39.2112 25.4403 38.6518 25.0747 38.0594 24.7424C37.5328 24.4433 36.9898 24.194 36.4304 23.978C35.9532 23.7952 35.476 23.6457 34.9824 23.5127C34.4558 23.3798 33.9128 23.2635 33.3698 23.2136C32.7939 23.1472 32.218 23.1804 31.6421 23.1804C31.1814 23.1804 30.7042 23.1804 30.2435 23.1804C29.3878 23.1804 28.5322 23.1804 27.6601 23.1804C27.4956 23.1804 27.331 23.1804 27.1665 23.1804V32.0205H28.7955V24.7922C29.4207 24.7922 30.046 24.7922 30.6713 24.7922C31.0991 24.7922 31.5434 24.7922 31.9712 24.7922C32.5142 24.7922 33.0572 24.759 33.5838 24.8587C33.7318 24.8919 33.8799 24.9252 34.0116 24.9584C34.4229 25.0581 34.8178 25.1744 35.2128 25.324C35.7228 25.5067 36.2329 25.7228 36.7101 25.9886C37.2696 26.2877 37.8126 26.6367 38.3227 27.0355C38.8986 27.4841 39.4087 27.9826 39.8694 28.5476C40.3959 29.179 40.8238 29.8769 41.1858 30.6081C41.5971 31.4555 41.8933 32.3695 42.0743 33.3C42.4528 35.1112 42.4034 36.9225 42.0085 38.7337C41.7288 39.9966 41.2516 41.2096 40.5605 42.2897C39.9846 43.2036 39.2606 44.0178 38.4214 44.6991C37.6974 45.2973 36.8747 45.7792 36.0355 46.1614C35.3279 46.4771 34.5875 46.743 33.8306 46.9258C33.3205 47.0587 32.7939 47.1584 32.2674 47.2082C32.2345 47.2082 31.7573 47.2581 31.7573 47.2581V48.7868H51.585V0H0Z" fill="white"/>
<path d="M75.8558 23.7784C74.0293 22.3327 71.413 22.15 69.2246 22.6651C68.9119 22.7316 68.6157 22.8312 68.3196 22.9476C67.1184 23.4294 66.1147 24.2935 65.3742 25.357C64.7489 26.2543 64.3047 27.3178 64.1072 28.3979C64.1072 28.7468 64.0085 29.129 63.992 29.478C63.9756 29.8103 63.9591 30.1426 63.9591 30.4916C63.992 32.7348 64.0249 34.9781 64.0249 37.2048C64.0249 38.1519 64.0249 39.0824 64.0249 40.0296H65.8678C65.8678 40.0296 65.8678 36.673 65.8678 36.4736C65.8678 36.0083 65.8678 35.5265 65.8678 35.0612H76.5633C76.5633 35.892 76.5633 36.7229 76.5633 37.5537C76.5633 38.3845 76.5633 39.2154 76.5633 40.0462H78.4062C78.4062 40.0462 78.4062 38.6006 78.4062 38.5341C78.4062 36.9555 78.4062 35.3603 78.4062 33.7817C78.4062 32.3527 78.4062 30.9402 78.4062 29.5112C78.4062 27.3012 77.5835 25.141 75.8558 23.7784ZM76.5633 32.5687C76.5633 32.8179 76.5633 33.0672 76.5633 33.2998H65.8678C65.8678 33.1835 65.8678 33.0672 65.8678 32.9342C65.8678 31.5551 65.7856 30.1759 65.8678 28.8133C65.9337 27.916 66.3286 26.9854 66.8058 26.2377C67.4639 25.2241 68.5006 24.5262 69.6688 24.2603C71.6928 23.795 74.2926 24.1772 75.5925 25.9552C76.119 26.6863 76.481 27.567 76.5468 28.481C76.662 29.8269 76.5633 31.2227 76.5633 32.5687Z" fill="white"/>
<path d="M112.615 23.7784C110.789 22.3327 108.172 22.15 105.984 22.6651C105.671 22.7316 105.375 22.8312 105.079 22.9476C103.878 23.4294 102.874 24.2935 102.133 25.357C101.508 26.2543 101.064 27.3178 100.866 28.3979C100.866 28.7468 100.768 29.129 100.751 29.478C100.735 29.8103 100.718 30.1426 100.718 30.4916C100.751 32.7348 100.784 34.9781 100.784 37.2048C100.784 38.1519 100.784 39.0824 100.784 40.0296H102.627C102.627 40.0296 102.627 36.673 102.627 36.4736C102.627 36.0083 102.627 35.5265 102.627 35.0612H113.323C113.323 35.892 113.323 36.7229 113.323 37.5537C113.323 38.3845 113.323 39.2154 113.323 40.0462H115.165C115.165 40.0462 115.165 38.6006 115.165 38.5341C115.165 36.9555 115.165 35.3603 115.165 33.7817C115.165 32.3527 115.165 30.9402 115.165 29.5112C115.182 27.3012 114.343 25.141 112.615 23.7784ZM113.323 32.5687C113.323 32.8179 113.323 33.0672 113.323 33.2998H102.627C102.627 33.1835 102.627 33.0672 102.627 32.9342C102.627 31.5551 102.545 30.1759 102.627 28.8133C102.693 27.916 103.088 26.9854 103.565 26.2377C104.223 25.2241 105.26 24.5262 106.428 24.2603C108.452 23.795 111.052 24.1772 112.352 25.9552C112.878 26.6863 113.24 27.567 113.306 28.481C113.421 29.8269 113.323 31.2227 113.323 32.5687Z" fill="white"/>
<path d="M97.4436 28.4481C97.1474 22.7485 91.6187 22.5657 91.6187 22.5657H83.918V40.0133H85.8431V34.5298H91.4212C91.4212 34.5298 97.6082 34.1144 97.4436 28.4481ZM91.2073 32.918H85.8267V24.2606H91.5035C91.5035 24.2606 95.6501 24.4102 95.6501 28.4481C95.6336 32.6023 91.2073 32.918 91.2073 32.918Z" fill="white"/>
<path d="M130.221 34.0479C131.999 33.3999 134.253 31.9044 134.154 28.4481C133.858 22.7485 128.329 22.5657 128.329 22.5657H120.628V40.0133H122.554V34.5298H128.132C128.132 34.5298 128.313 34.5132 128.592 34.48L132.344 40.0133H134.483L130.221 34.0479ZM127.918 32.918H122.537V24.2606H128.214C128.214 24.2606 132.361 24.4102 132.361 28.4481C132.344 32.6023 127.918 32.918 127.918 32.918Z" fill="white"/>
<path d="M150 24.3266C150 24.3266 146.693 22.399 142.793 22.399C138.893 22.399 135.586 24.3266 135.586 24.3266L136.261 25.8221C136.261 25.8221 138.646 24.2601 141.839 23.9943V40.0128H143.682V23.9943C146.874 24.2601 149.342 25.8221 149.342 25.8221L150 24.3266Z" fill="white"/>
<path d="M66.8878 42.2397L64.1892 42.273V45.2474V45.3138V48.2882L66.8878 48.3215C66.97 48.3215 67.0688 48.3049 67.151 48.3049C67.3649 48.2716 67.5789 48.2218 67.7928 48.1387C68.0725 48.039 68.3522 47.8894 68.5826 47.7067C68.8788 47.474 69.1256 47.1915 69.3066 46.8592C69.4547 46.5933 69.5698 46.3109 69.6357 46.0284C69.7015 45.7957 69.7344 45.5631 69.7508 45.3138C69.7508 45.0646 69.7179 44.832 69.6521 44.5827C69.6028 44.3501 69.5205 44.1174 69.4218 43.9014C69.2572 43.5525 69.0269 43.2201 68.7471 42.9543C68.5168 42.7382 68.237 42.5721 67.9573 42.4558C67.7434 42.3561 67.4966 42.2896 67.2662 42.2564C67.1346 42.2564 67.0194 42.2397 66.8878 42.2397C66.9042 42.2397 66.8878 42.2397 66.8878 42.2397ZM69.1914 45.3471C69.0598 47.6402 66.8548 47.8396 66.8548 47.8396H64.6993V45.3138V45.2474V42.7216H66.8548C66.8548 42.7216 69.0598 42.921 69.1914 45.2141V45.3471Z" fill="white"/>
<path d="M74.9177 45.6963C74.7696 44.583 73.8646 43.7355 72.7622 43.7355C71.561 43.7355 70.5737 44.7658 70.5737 46.0286C70.5737 47.2915 71.5445 48.3218 72.7622 48.3218C73.4697 48.3218 74.2102 48.0559 74.6216 47.5075L74.2925 47.2583C73.9634 47.6571 73.3052 47.8731 72.7622 47.8731C71.9888 47.8731 71.3471 47.358 71.1167 46.6268L74.9342 45.8292V45.6963H74.9177ZM71.0016 46.0286C71.0016 45.015 71.7914 44.1842 72.7457 44.1842C73.552 44.1842 74.2266 44.7492 74.4241 45.5301L71.0016 46.2114C71.0016 46.145 71.0016 46.0951 71.0016 46.0286Z" fill="white"/>
<path d="M84.3294 45.6963C84.1813 44.583 83.2763 43.7355 82.1738 43.7355C80.9726 43.7355 79.9854 44.7658 79.9854 46.0286C79.9854 47.2915 80.9562 48.3218 82.1738 48.3218C82.8814 48.3218 83.6218 48.0559 84.0332 47.5075L83.7041 47.2583C83.375 47.6571 82.7168 47.8731 82.1738 47.8731C81.4004 47.8731 80.7587 47.358 80.5283 46.6268L84.3458 45.8292V45.6963H84.3294ZM80.4132 46.0286C80.4132 45.015 81.203 44.1842 82.1574 44.1842C82.9636 44.1842 83.6383 44.7492 83.8357 45.5301L80.4132 46.2114C80.4132 46.145 80.4132 46.0951 80.4132 46.0286Z" fill="white"/>
<path d="M111.973 45.6963C111.825 44.583 110.92 43.7355 109.817 43.7355C108.616 43.7355 107.629 44.7658 107.629 46.0286C107.629 47.2915 108.6 48.3218 109.817 48.3218C110.525 48.3218 111.265 48.0559 111.677 47.5075L111.348 47.2583C111.019 47.6571 110.36 47.8731 109.817 47.8731C109.044 47.8731 108.402 47.358 108.172 46.6268L111.989 45.8292V45.6963H111.973ZM108.073 46.0286C108.073 45.015 108.863 44.1842 109.817 44.1842C110.624 44.1842 111.298 44.7492 111.496 45.5301L108.073 46.2114C108.073 46.145 108.073 46.0951 108.073 46.0286Z" fill="white"/>
<path d="M89.776 43.7355C88.5254 43.7355 87.5052 44.7658 87.5052 46.0286C87.5052 47.2915 88.5254 48.3218 89.776 48.3218C91.0265 48.3218 92.0467 47.2915 92.0467 46.0286C92.0467 44.7658 91.043 43.7355 89.776 43.7355ZM89.776 47.8233C88.7887 47.8233 87.9989 47.0257 87.9989 46.0286C87.9989 45.0316 88.7887 44.234 89.776 44.234C90.7632 44.234 91.5531 45.0316 91.5531 46.0286C91.5531 47.0257 90.7632 47.8233 89.776 47.8233Z" fill="white"/>
<path d="M95.5185 43.7355C94.7945 43.7355 94.1528 44.0679 93.7414 44.5996V43.7355H93.2478V50.0001H93.7414V47.4743C94.1528 48.006 94.7945 48.3384 95.5185 48.3384C96.7691 48.3384 97.7893 47.3081 97.7893 46.0453C97.7893 44.7824 96.7855 43.7355 95.5185 43.7355ZM95.5185 47.8233C94.5313 47.8233 93.7414 47.0257 93.7414 46.0286C93.7414 45.0316 94.5313 44.234 95.5185 44.234C96.5058 44.234 97.2956 45.0316 97.2956 46.0286C97.2956 47.0257 96.5058 47.8233 95.5185 47.8233Z" fill="white"/>
<path d="M79.1627 43.7355L77.402 47.6737L75.6579 43.7355H75.1807L77.1717 48.3384H77.402H77.6488L79.6234 43.7355H79.1627Z" fill="white"/>
<path d="M87.209 47.8225C87.2254 47.8059 86.6166 47.9721 86.2711 47.8225C86.0078 47.7062 86.0078 47.4403 86.0078 47.4403V41.8737H85.5142V47.4569C85.5142 47.4569 85.5306 48.0884 86.123 48.2546C86.5343 48.3543 87.2583 48.2546 87.2583 48.2546L87.209 47.8225Z" fill="white"/>
<path d="M120.941 47.6901C120.958 47.6735 120.201 47.9726 119.724 47.8397C119.493 47.7732 119.46 47.4575 119.46 47.4575V44.2172H120.826V43.7187H119.46V42.7383H118.967V47.4575C118.967 47.4575 118.983 48.0889 119.575 48.2551C120.184 48.388 121.04 48.1056 121.04 48.1056L120.941 47.6901Z" fill="white"/>
<path d="M117.222 45.1482C117.206 45.0651 117.173 44.9654 117.14 44.8823C117.091 44.7826 117.041 44.6663 116.976 44.5832C116.811 44.3339 116.614 44.1013 116.35 43.9518C116.071 43.7856 115.742 43.7025 115.412 43.7025C114.425 43.7524 113.981 44.2343 113.783 44.6829V43.7358H113.24V48.3386H113.783V45.3476C113.948 44.8657 114.343 44.1512 115.33 44.1345C115.758 44.1179 116.202 44.2509 116.466 44.633C116.63 44.8657 116.679 45.0983 116.679 45.3642C116.679 45.5137 116.679 45.6633 116.679 45.8128C116.679 46.2283 116.679 46.6271 116.679 47.0425C116.679 47.3914 116.679 47.757 116.679 48.106C116.679 48.1226 116.679 48.3386 116.679 48.3386H117.255C117.255 48.2223 117.255 48.106 117.255 47.9896C117.255 47.7238 117.255 47.4413 117.255 47.1754C117.255 46.8597 117.255 46.5274 117.255 46.2116C117.255 45.9458 117.255 45.6965 117.255 45.4307C117.222 45.331 117.222 45.2479 117.222 45.1482Z" fill="white"/>
<path d="M104.601 43.7025C103.45 43.7524 103.038 44.4004 102.89 44.8823C102.693 44.4503 102.216 43.7025 101.162 43.7025C100.175 43.7524 99.7309 44.2343 99.5335 44.6829V43.7358H98.9905V48.3386H99.5335V45.3476C99.698 44.8657 100.093 44.1512 101.08 44.1345C101.508 44.1179 101.952 44.2509 102.216 44.633C102.38 44.8657 102.429 45.0983 102.429 45.3642C102.429 45.5137 102.429 45.6633 102.429 45.8128C102.429 46.2283 102.429 46.6271 102.429 47.0425C102.429 47.3914 102.429 47.757 102.429 48.106C102.429 48.1226 102.429 48.3386 102.429 48.3386H103.005C103.005 48.3386 103.005 45.5802 103.005 45.2645C103.005 44.9488 103.598 44.1512 104.519 44.1512C104.947 44.1346 105.391 44.2675 105.655 44.6497C105.819 44.8823 105.868 45.1149 105.868 45.3808C105.868 45.5304 105.868 45.6799 105.868 45.8295C105.868 46.2449 105.868 46.6437 105.868 47.0591C105.868 47.4081 105.868 47.7736 105.868 48.1226C105.868 48.1392 105.868 48.3552 105.868 48.3552H106.444C106.444 48.1558 106.444 47.9564 106.444 47.757C106.444 47.3416 106.444 46.9262 106.444 46.5108C106.444 46.1452 106.444 45.7796 106.444 45.4307C106.444 45.3143 106.444 45.198 106.411 45.0983C106.395 45.0485 106.379 45.0152 106.362 44.9654C106.313 44.8325 106.247 44.6995 106.165 44.5832C105.951 44.2509 105.655 43.9684 105.276 43.8354C105.062 43.7357 104.832 43.7025 104.601 43.7025Z" fill="white"/>
</svg>
