<svg width="14" height="16" viewBox="0 0 14 16" fill="none" xmlns="http://www.w3.org/2000/svg">
<path opacity="0.8" d="M12.5515 5.33234L4.35368 0.407431C3.91008 0.139103 3.4066 -0.00146235 2.89436 1.14714e-05C2.38212 0.00148529 1.87938 0.144946 1.4372 0.415822C0.995017 0.686699 0.629151 1.07534 0.376759 1.54227C0.124368 2.0092 -0.00555684 2.53779 0.000182211 3.07435V12.9597C0.000182211 13.766 0.305962 14.5394 0.850255 15.1095C1.39455 15.6797 2.13277 16 2.90251 16C3.41206 15.9991 3.91246 15.8581 4.35368 15.5911L12.5515 10.6662C12.992 10.3991 13.3577 10.0154 13.6119 9.55356C13.8662 9.09171 14 8.56795 14 8.03481C14 7.50167 13.8662 6.97791 13.6119 6.51606C13.3577 6.05421 12.992 5.67051 12.5515 5.40345V5.33234ZM11.7029 9.05713L3.50504 14.0532C3.3213 14.1622 3.11371 14.2196 2.90251 14.2196C2.69132 14.2196 2.48372 14.1622 2.29998 14.0532C2.11676 13.9423 1.96462 13.7829 1.85885 13.591C1.75308 13.3991 1.69742 13.1813 1.69745 12.9597V3.03879C1.69742 2.81716 1.75308 2.59944 1.85885 2.4075C1.96462 2.21555 2.11676 2.05616 2.29998 1.94535C2.48448 1.83793 2.69145 1.77991 2.90251 1.77645C3.11343 1.78098 3.32016 1.83893 3.50504 1.94535L11.7029 6.90582C11.8861 7.01658 12.0384 7.17595 12.1442 7.36789C12.25 7.55984 12.3057 7.77759 12.3057 7.99925C12.3057 8.22091 12.25 8.43867 12.1442 8.63061C12.0384 8.82255 11.8861 8.98192 11.7029 9.09269V9.05713Z" fill="#121927"/>
</svg>
