<svg width="16" height="16" viewBox="0 0 16 16" fill="none" xmlns="http://www.w3.org/2000/svg">
<path opacity="0.8" fill-rule="evenodd" clip-rule="evenodd" d="M8.38309 0.680173C8.4298 0.260523 8.80851 -0.041878 9.22896 0.00474181C10.9561 0.196242 12.5666 0.968183 13.7961 2.19382C15.0257 3.41946 15.8011 5.02594 15.9951 6.74949C16.0424 7.16908 15.7399 7.54745 15.3195 7.5946C14.8991 7.64175 14.52 7.33982 14.4728 6.92023C14.3175 5.54139 13.6972 4.2562 12.7135 3.27569C11.7299 2.29518 10.4415 1.67763 9.05981 1.52443C8.63936 1.47781 8.33638 1.09982 8.38309 0.680173ZM3.57701 2.47842C3.43609 2.35745 3.25589 2.29176 3.07003 2.29359L3.06249 2.29366L0.764944 2.29362C0.658711 2.29377 0.553668 2.31596 0.45649 2.35881C0.359216 2.40169 0.271954 2.46432 0.20026 2.54271C0.128565 2.6211 0.0740103 2.71353 0.0400675 2.81412C0.00666175 2.91311 -0.00605836 3.01787 0.00267086 3.12193C0.242228 5.36316 1.00682 7.51671 2.23467 9.40846L2.23833 9.41409C3.35406 11.1666 4.84267 12.6524 6.59851 13.766L6.60449 13.7698C8.49097 14.9908 10.6378 15.7537 12.8729 15.9974C12.9772 16.006 13.0822 15.9932 13.1814 15.9597C13.2824 15.9256 13.3752 15.8708 13.4538 15.7988C13.5324 15.7269 13.5951 15.6393 13.6378 15.5418C13.6806 15.4442 13.7024 15.3388 13.702 15.2324L13.702 15.2293V12.9357C13.702 12.9321 13.702 12.9284 13.7021 12.9248C13.7021 12.9221 13.7022 12.9194 13.7022 12.9168C13.7069 12.7293 13.6423 12.5466 13.5209 12.4036C13.4 12.2612 13.2312 12.1679 13.0462 12.1412C12.255 12.0367 11.4781 11.8434 10.7303 11.5649L10.7285 11.5642C10.5915 11.5128 10.4425 11.5017 10.2993 11.5321C10.1566 11.5625 10.0256 11.6329 9.92169 11.735L8.95068 12.7042C8.70685 12.9475 8.33017 12.9983 8.03042 12.8281C5.9929 11.6718 4.30586 9.98798 3.14729 7.95434C2.97684 7.65517 3.0277 7.27921 3.27152 7.03585L4.24251 6.06672C4.34482 5.96298 4.41535 5.83223 4.44578 5.68984C4.47632 5.54689 4.46517 5.3982 4.41364 5.26138L4.41299 5.25965C4.13397 4.51332 3.94027 3.73793 3.8356 2.94823C3.80904 2.76564 3.71722 2.59876 3.57701 2.47842ZM8.39258 3.67626C8.47359 3.26184 8.87586 2.99143 9.29107 3.07229C10.1889 3.24712 11.014 3.68536 11.6608 4.33093C12.3076 4.9765 12.7467 5.80003 12.9218 6.69611C13.0028 7.11053 12.7319 7.51202 12.3167 7.59288C11.9015 7.67373 11.4992 7.40333 11.4182 6.98891C11.3014 6.39152 11.0087 5.84251 10.5775 5.41213C10.1463 4.98175 9.59624 4.68958 8.99771 4.57303C8.5825 4.49218 8.31157 4.09068 8.39258 3.67626Z" fill="#121927"/>
</svg>
