<svg width="20" height="12" viewBox="0 0 20 12" fill="none" xmlns="http://www.w3.org/2000/svg">
<path opacity="0.8" d="M10 0C4.3 0 0 2.14896 0 4.99759C0 7.4464 3.19 9.37547 7.71 9.87523L7.29 10.285C7.19627 10.3779 7.12188 10.4885 7.07111 10.6103C7.02034 10.7321 6.9942 10.8627 6.9942 10.9947C6.9942 11.1266 7.02034 11.2573 7.07111 11.3791C7.12188 11.5009 7.19627 11.6114 7.29 11.7043C7.38296 11.798 7.49356 11.8724 7.61542 11.9231C7.73728 11.9739 7.86799 12 8 12C8.13201 12 8.26272 11.9739 8.38458 11.9231C8.50644 11.8724 8.61704 11.798 8.71 11.7043L10.71 9.70531C10.801 9.61025 10.8724 9.49816 10.92 9.37547C11.02 9.13213 11.02 8.85918 10.92 8.61584C10.8724 8.49314 10.801 8.38105 10.71 8.286L8.71 6.28696C8.5217 6.09875 8.2663 5.99301 8 5.99301C7.7337 5.99301 7.4783 6.09875 7.29 6.28696C7.1017 6.47517 6.99591 6.73045 6.99591 6.99662C6.99591 7.26279 7.1017 7.51806 7.29 7.70628L7.41 7.81622C4 7.33645 2 5.9971 2 4.99759C2 3.77817 5.12 1.99903 10 1.99903C14.88 1.99903 18 3.77817 18 4.99759C18 5.82718 16.55 6.99662 13.79 7.59633C13.6594 7.62135 13.535 7.67216 13.4243 7.7458C13.3135 7.81943 13.2186 7.91441 13.145 8.02518C13.0715 8.13594 13.0207 8.26026 12.9958 8.39086C12.9709 8.52146 12.9724 8.65571 13 8.78575C13.0273 8.91453 13.0798 9.03665 13.1544 9.14509C13.2291 9.25354 13.3244 9.34618 13.435 9.41769C13.5456 9.4892 13.6692 9.53818 13.7988 9.56181C13.9283 9.58544 14.0613 9.58325 14.19 9.55538C17.84 8.75577 20 7.05659 20 4.99759C20 2.14896 15.7 0 10 0Z" fill="#121927"/>
</svg>
